<svg width="22" height="22" viewBox="0 0 22 22" fill="none" xmlns="http://www.w3.org/2000/svg">
<path fill-rule="evenodd" clip-rule="evenodd" d="M5.8125 6.60358V9.36572H4.875C3.87342 9.36572 3 10.0805 3 11.0537V18.7263C3 19.6995 3.87342 20.4143 4.875 20.4143H16.125C17.1266 20.4143 18 19.6995 18 18.7263V11.0537C18 10.0805 17.1266 9.36572 16.125 9.36572H15.1875V6.60358C15.1875 4.06109 13.0888 2 10.5 2C7.91116 2 5.8125 4.06109 5.8125 6.60358ZM13.3125 6.60358V9.36572H7.6875V6.60358C7.6875 5.07809 8.9467 3.84143 10.5 3.84143C12.0533 3.84143 13.3125 5.07809 13.3125 6.60358ZM4.875 18.5729V11.2072H16.125V18.5729H4.875ZM12.375 12.5882L10.0312 15.3504L9.09375 14.4297L8.15625 15.3504L10.0312 17.1918L13.3125 13.5089L12.375 12.5882Z" fill="#2D2D2D"/>
</svg>
