<svg width="26" height="27" viewBox="0 0 26 27" fill="none" xmlns="http://www.w3.org/2000/svg">
<path d="M18.8414 0.890684C16.5805 0.890684 14.4105 2.03889 12.9941 3.85334C11.5777 2.03889 9.40773 0.890684 7.14675 0.890684C3.14457 0.890684 0 4.32113 0 8.68714C0 14.0454 4.41799 18.4115 11.11 25.0455L12.9941 26.9025L14.8782 25.0314C21.5702 18.4115 25.9882 14.0454 25.9882 8.68714C25.9882 4.32113 22.8436 0.890684 18.8414 0.890684Z" fill="#2D2D2D"/>
<path d="M13.124 22.9334L12.994 23.0752L12.8641 22.9334C6.6789 16.8238 2.59875 12.7838 2.59875 8.68716C2.59875 5.85208 4.54787 3.72578 7.14669 3.72578C9.14778 3.72578 11.0969 5.12914 11.7856 7.07117H14.2155C14.8912 5.12914 16.8403 3.72578 18.8414 3.72578C21.4402 3.72578 23.3893 5.85208 23.3893 8.68716C23.3893 12.7838 19.3092 16.8238 13.124 22.9334Z" fill="#F0F0F0"/>
</svg>
