<svg width="22" height="23" viewBox="0 0 22 23" fill="none" xmlns="http://www.w3.org/2000/svg">
<path fill-rule="evenodd" clip-rule="evenodd" d="M6.41663 6.5841V9.33411H5.49996C4.52064 9.33411 3.66663 10.0458 3.66663 11.0147V18.6535C3.66663 19.6224 4.52064 20.3341 5.49996 20.3341H16.5C17.4793 20.3341 18.3333 19.6224 18.3333 18.6535V11.0147C18.3333 10.0458 17.4793 9.33411 16.5 9.33411H15.5833V6.5841C15.5833 4.05279 13.5313 2.00076 11 2.00076C8.46866 2.00076 6.41663 4.05279 6.41663 6.5841ZM13.75 6.5841V9.33411H8.24996V6.5841C8.24996 5.06531 9.48118 3.8341 11 3.8341C12.5187 3.8341 13.75 5.06531 13.75 6.5841ZM5.49995 18.5008V11.1674H16.4999V18.5008H5.49995ZM11.9166 14.8341C11.9166 15.3403 11.5062 15.7508 11 15.7508C10.4937 15.7508 10.0833 15.3403 10.0833 14.8341C10.0833 14.3278 10.4937 13.9174 11 13.9174C11.5062 13.9174 11.9166 14.3278 11.9166 14.8341Z" fill="#2D2D2D" class="icon password"/>
</svg>
