<svg width="23" height="23" viewBox="0 0 23 23" fill="none" xmlns="http://www.w3.org/2000/svg">
<g id="perm_identity_24px">
<path id="icon/action/perm_identity_24px" fill-rule="evenodd" clip-rule="evenodd" d="M11.5 3.83334C9.38212 3.83334 7.6667 5.54875 7.6667 7.66667C7.6667 9.78459 9.38212 11.5 11.5 11.5C13.618 11.5 15.3334 9.78459 15.3334 7.66667C15.3334 5.54875 13.618 3.83334 11.5 3.83334ZM13.4167 7.66667C13.4167 6.6125 12.5542 5.75 11.5 5.75C10.4459 5.75 9.58337 6.6125 9.58337 7.66667C9.58337 8.72084 10.4459 9.58334 11.5 9.58334C12.5542 9.58334 13.4167 8.72084 13.4167 7.66667ZM17.25 16.2917C17.0584 15.6113 14.0875 14.375 11.5 14.375C8.91254 14.375 5.94171 15.6113 5.75004 16.3013V17.25H17.25V16.2917ZM3.83337 16.2917C3.83337 13.7425 8.94129 12.4583 11.5 12.4583C14.0588 12.4583 19.1667 13.7425 19.1667 16.2917V19.1667H3.83337V16.2917Z" fill="#2D2D2D"/>
</g>
</svg>
