<svg width="23" height="22" viewBox="0 0 23 22" fill="none" xmlns="http://www.w3.org/2000/svg">
<g id="user">
<path id="icon/action/perm_identity_24px" fill-rule="evenodd" clip-rule="evenodd" d="M11.6009 3C9.48295 3 7.76753 4.71542 7.76753 6.83333C7.76753 8.95125 9.48295 10.6667 11.6009 10.6667C13.7188 10.6667 15.4342 8.95125 15.4342 6.83333C15.4342 4.71542 13.7188 3 11.6009 3ZM13.5175 6.83333C13.5175 5.77917 12.655 4.91667 11.6009 4.91667C10.5467 4.91667 9.6842 5.77917 9.6842 6.83333C9.6842 7.8875 10.5467 8.75 11.6009 8.75C12.655 8.75 13.5175 7.8875 13.5175 6.83333ZM17.3509 15.4583C17.1592 14.7779 14.1884 13.5417 11.6009 13.5417C9.01337 13.5417 6.04254 14.7779 5.85087 15.4679V16.4167H17.3509V15.4583ZM3.9342 15.4583C3.9342 12.9092 9.04212 11.625 11.6009 11.625C14.1596 11.625 19.2675 12.9092 19.2675 15.4583V18.3333H3.9342V15.4583Z" fill="#2D2D2D"/>
</g>
</svg>
